<svg width="32" height="32" viewBox="0 0 32 32" fill="none" xmlns="http://www.w3.org/2000/svg">
<path d="M12 1.44434C6.18286 1.44434 1.44434 6.18286 1.44434 12C1.44434 17.8171 6.18286 22.5557 12 22.5557C14.5183 22.5557 16.8323 21.6657 18.6494 20.1865L26.0654 29.4766C26.0654 29.4766 27.6897 29.718 28.6982 28.667C29.7137 27.608 29.4756 26.0674 29.4756 26.0674L20.1865 18.6494C21.6657 16.8323 22.5557 14.5183 22.5557 12C22.5557 6.18286 17.8171 1.44434 12 1.44434ZM12 3.55566C16.6763 3.55566 20.4443 7.32373 20.4443 12C20.4443 16.6763 16.6763 20.4443 12 20.4443C7.32373 20.4443 3.55566 16.6763 3.55566 12C3.55566 7.32373 7.32373 3.55566 12 3.55566Z" fill="white"/>
</svg>
