<svg width="14" height="12" viewBox="0 0 14 12" fill="none" xmlns="http://www.w3.org/2000/svg">
<path d="M5.33333 5.33333C4.6 5.33333 3.97222 5.07222 3.45 4.55C2.92778 4.02778 2.66667 3.4 2.66667 2.66667C2.66667 1.93333 2.92778 1.30556 3.45 0.783333C3.97222 0.261111 4.6 0 5.33333 0C6.06667 0 6.69444 0.261111 7.21667 0.783333C7.73889 1.30556 8 1.93333 8 2.66667C8 3.4 7.73889 4.02778 7.21667 4.55C6.69444 5.07222 6.06667 5.33333 5.33333 5.33333ZM0 10.6667V8.8C0 8.43333 0.0944444 8.08889 0.283333 7.76667C0.472222 7.44444 0.733333 7.2 1.06667 7.03333C1.63333 6.74444 2.27222 6.5 2.98333 6.3C3.69444 6.1 4.47778 6 5.33333 6H5.56667C5.63333 6 5.7 6.01111 5.76667 6.03333C5.67778 6.23333 5.60278 6.44167 5.54167 6.65833C5.48056 6.875 5.43333 7.1 5.4 7.33333H5.33333C4.54444 7.33333 3.83611 7.43333 3.20833 7.63333C2.58056 7.83333 2.06667 8.03333 1.66667 8.23333C1.56667 8.28889 1.48611 8.36667 1.425 8.46667C1.36389 8.56667 1.33333 8.67778 1.33333 8.8V9.33333H5.53333C5.6 9.56667 5.68889 9.79722 5.8 10.025C5.91111 10.2528 6.03333 10.4667 6.16667 10.6667H0ZM9.33333 11.3333L9.13333 10.3333C9 10.2778 8.875 10.2194 8.75833 10.1583C8.64167 10.0972 8.52222 10.0222 8.4 9.93333L7.43333 10.2333L6.76667 9.1L7.53333 8.43333C7.51111 8.27778 7.5 8.13333 7.5 8C7.5 7.86667 7.51111 7.72222 7.53333 7.56667L6.76667 6.9L7.43333 5.76667L8.4 6.06667C8.52222 5.97778 8.64167 5.90278 8.75833 5.84167C8.875 5.78056 9 5.72222 9.13333 5.66667L9.33333 4.66667H10.6667L10.8667 5.66667C11 5.72222 11.125 5.78333 11.2417 5.85C11.3583 5.91667 11.4778 6 11.6 6.1L12.5667 5.76667L13.2333 6.93333L12.4667 7.6C12.4889 7.73333 12.5 7.87222 12.5 8.01667C12.5 8.16111 12.4889 8.3 12.4667 8.43333L13.2333 9.1L12.5667 10.2333L11.6 9.93333C11.4778 10.0222 11.3583 10.0972 11.2417 10.1583C11.125 10.2194 11 10.2778 10.8667 10.3333L10.6667 11.3333H9.33333ZM10 9.33333C10.3667 9.33333 10.6806 9.20278 10.9417 8.94167C11.2028 8.68056 11.3333 8.36667 11.3333 8C11.3333 7.63333 11.2028 7.31944 10.9417 7.05833C10.6806 6.79722 10.3667 6.66667 10 6.66667C9.63333 6.66667 9.31944 6.79722 9.05833 7.05833C8.79722 7.31944 8.66667 7.63333 8.66667 8C8.66667 8.36667 8.79722 8.68056 9.05833 8.94167C9.31944 9.20278 9.63333 9.33333 10 9.33333ZM5.33333 4C5.7 4 6.01389 3.86944 6.275 3.60833C6.53611 3.34722 6.66667 3.03333 6.66667 2.66667C6.66667 2.3 6.53611 1.98611 6.275 1.725C6.01389 1.46389 5.7 1.33333 5.33333 1.33333C4.96667 1.33333 4.65278 1.46389 4.39167 1.725C4.13056 1.98611 4 2.3 4 2.66667C4 3.03333 4.13056 3.34722 4.39167 3.60833C4.65278 3.86944 4.96667 4 5.33333 4Z" fill="white"/>
</svg>
