<svg width="16" height="20" viewBox="0 0 16 20" fill="none" xmlns="http://www.w3.org/2000/svg">
<path d="M6.54545 0C5.74218 0 5.09091 0.7164 5.09091 1.6V2.4H4.94531L0 3.2V4.4H16V3.2L11.0547 2.4H10.9091V1.6C10.9091 0.7164 10.2578 0 9.45455 0H6.54545ZM6.54545 1.6H9.45455V2.4H6.54545V1.6ZM0.727273 5.2L1.70952 18.5289C1.77061 19.3597 2.40198 20 3.1598 20H12.8409C13.5987 20 14.229 19.3605 14.2905 18.5297L15.245 5.6L0.727273 5.2ZM3.63636 8C4.03818 8 4.36364 8.358 4.36364 8.8V18H3.27273L2.90909 8.8C2.90909 8.358 3.23455 8 3.63636 8ZM8 8C8.60255 8 9.09091 8.5372 9.09091 9.2V18H6.90909V9.2C6.90909 8.5372 7.39745 8 8 8ZM12.3636 8C12.7655 8 13.0909 8.358 13.0909 8.8L12.7273 18H11.6364V8.8C11.6364 8.358 11.9618 8 12.3636 8Z" fill="#FF6666"/>
</svg>
