<svg width="45" height="53" viewBox="0 0 45 53" fill="none" xmlns="http://www.w3.org/2000/svg">
<path d="M20.2273 10C18.9722 10 17.9545 11.1821 17.9545 12.64V13.96H17.7271L10 15.28V17.26H35V15.28L27.2729 13.96H27.0455V12.64C27.0455 11.1821 26.0278 10 24.7727 10H20.2273ZM20.2273 12.64H24.7727V13.96H20.2273V12.64ZM11.1364 18.58L12.6711 40.5727C12.7666 41.9435 13.7531 43 14.9372 43H30.0639C31.248 43 32.2329 41.9448 32.3289 40.574L33.8204 19.24L11.1364 18.58ZM15.6818 23.2C16.3097 23.2 16.8182 23.7907 16.8182 24.52V39.7H15.1136L14.5455 24.52C14.5455 23.7907 15.054 23.2 15.6818 23.2ZM22.5 23.2C23.4415 23.2 24.2045 24.0864 24.2045 25.18V39.7H20.7955V25.18C20.7955 24.0864 21.5585 23.2 22.5 23.2ZM29.3182 23.2C29.946 23.2 30.4545 23.7907 30.4545 24.52L29.8864 39.7H28.1818V24.52C28.1818 23.7907 28.6903 23.2 29.3182 23.2Z" fill="white"/>
</svg>
